<svg xmlns="http://www.w3.org/2000/svg" width="300" height="600" viewBox="0 0 300 600" fill="none">
  <rect width="300" height="600" rx="30" fill="#F3F4F6"/>
  <rect x="15" y="15" width="270" height="570" rx="20" fill="white"/>
  
  <!-- Header -->
  <rect x="30" y="40" width="240" height="60" rx="10" fill="#0070f3"/>
  <rect x="50" y="60" width="120" height="20" rx="5" fill="white"/>
  <circle cx="230" cy="70" r="15" fill="white"/>
  
  <!-- Body content -->
  <rect x="30" y="120" width="240" height="30" rx="5" fill="#E5E7EB"/>
  <rect x="30" y="160" width="180" height="20" rx="5" fill="#E5E7EB"/>
  <rect x="30" y="190" width="150" height="20" rx="5" fill="#E5E7EB"/>
  
  <!-- Chart -->
  <rect x="30" y="230" width="240" height="100" rx="10" fill="#F3F4F6"/>
  <path d="M50 300 L90 270 L130 290 L170 260 L210 240 L250 280" stroke="#0070f3" stroke-width="3" stroke-linecap="round"/>
  
  <!-- Workout cards -->
  <rect x="30" y="350" width="240" height="70" rx="10" fill="#F3F4F6"/>
  <rect x="50" y="370" width="100" height="15" rx="3" fill="#D1D5DB"/>
  <rect x="50" y="395" width="70" height="10" rx="3" fill="#D1D5DB"/>
  <circle cx="230" cy="385" r="15" fill="#0070f3"/>
  
  <rect x="30" y="440" width="240" height="70" rx="10" fill="#F3F4F6"/>
  <rect x="50" y="460" width="100" height="15" rx="3" fill="#D1D5DB"/>
  <rect x="50" y="485" width="70" height="10" rx="3" fill="#D1D5DB"/>
  <circle cx="230" cy="475" r="15" fill="#0070f3"/>
  
  <!-- Bottom navigation -->
  <rect x="30" y="540" width="240" height="30" rx="10" fill="#F3F4F6"/>
  <circle cx="70" cy="555" r="8" fill="#9CA3AF"/>
  <circle cx="150" cy="555" r="8" fill="#0070f3"/>
  <circle cx="230" cy="555" r="8" fill="#9CA3AF"/>
</svg> 