<svg xmlns="http://www.w3.org/2000/svg" width="24" height="24" viewBox="0 0 24 24" fill="none">
  <path d="M3 20.5V3.5C3 2.91 3.34 2.39 3.84 2.15L13.69 12L3.84 21.85C3.34 21.6 3 21.09 3 20.5Z" fill="#0070f3"/>
  <path d="M3.84 21.85L13.69 12L17.75 16.05L5.28 22.95C4.8 23.21 4.19 23.17 3.84 21.85Z" fill="#FF4081"/>
  <path d="M20.71 11.12L17.75 16.05L13.69 12L17.75 7.95L20.71 12.88C21.1 13.54 21.1 12.46 20.71 11.12Z" fill="#00C853"/>
  <path d="M5.28 1.05L17.75 7.95L13.69 12L3.84 2.15C4.19 0.83 4.8 0.79 5.28 1.05Z" fill="#FFAB00"/>
</svg> 