<?xml version="1.0" encoding="UTF-8"?>
<svg version="1.1" xmlns="http://www.w3.org/2000/svg" width="1200" height="162">
<path d="M0 0 C1.54121647 -0.00269907 3.08243128 -0.00658493 4.62364197 -0.01159668 C7.84211559 -0.01747057 11.060143 -0.00899651 14.27856445 0.00976562 C18.38984401 0.03257382 22.50007995 0.01940782 26.61132145 -0.00452423 C29.78995028 -0.01902342 32.96833428 -0.01435785 36.14697075 -0.00401306 C37.66232873 -0.00135812 39.17770945 -0.00457188 40.69304085 -0.01393127 C56.10552326 -0.08826532 56.10552326 -0.08826532 62.859375 6.09375 C67.33241051 11.91027674 68.44460858 15.44232045 68.27734375 22.78125 C68.23609375 25.33875 68.19484375 27.89625 68.15234375 30.53125 C60.89234375 30.53125 53.63234375 30.53125 46.15234375 30.53125 C46.15234375 27.89125 46.15234375 25.25125 46.15234375 22.53125 C28.00234375 22.53125 9.85234375 22.53125 -8.84765625 22.53125 C-8.84765625 27.81125 -8.84765625 33.09125 -8.84765625 38.53125 C-6.97585693 38.51030273 -5.10405762 38.48935547 -3.17553711 38.46777344 C3.02698652 38.40312626 9.22943007 38.35724487 15.43219852 38.32400131 C19.19091265 38.30317622 22.94926038 38.274953 26.70776367 38.22949219 C30.33879099 38.18585092 33.96946715 38.16207474 37.60073662 38.15174103 C38.98217734 38.1443822 40.36360006 38.13001213 41.74489021 38.10832977 C50.43746069 37.97737727 56.26358006 38.0564091 62.859375 44.09375 C68.49275562 51.4191354 68.52494512 57.10986357 68.52294922 66.12036133 C68.52730961 68.32647657 68.56361288 70.53056823 68.6015625 72.73632812 C68.6074341 74.15363905 68.6114012 75.57095941 68.61328125 76.98828125 C68.62149902 78.26678955 68.6297168 79.54529785 68.63818359 80.86254883 C67.86950204 86.66706025 65.18788366 91.18255772 60.58984375 94.90625 C60.01105469 95.38835937 59.43226563 95.87046875 58.8359375 96.3671875 C55.21644259 98.8697617 51.77164246 98.67368298 47.51293945 98.70825195 C46.84260178 98.71482315 46.1722641 98.72139435 45.48161316 98.72816467 C43.26378256 98.74786859 41.04601969 98.75955568 38.828125 98.76953125 C38.06858206 98.77360678 37.30903912 98.7776823 36.52647972 98.78188133 C32.50373991 98.80273288 28.48103409 98.81703673 24.45825195 98.82641602 C20.3167771 98.83745941 16.17584264 98.87183739 12.0345583 98.91158772 C8.83879139 98.93782213 5.64315171 98.94611401 2.44728661 98.94969749 C0.92155509 98.95454838 -0.60417132 98.96611944 -2.12979698 98.98473549 C-17.08992473 99.15588932 -17.08992473 99.15588932 -23.84765625 94.53125 C-31.10288595 86.89542923 -30.84765625 78.92222756 -30.84765625 68.53125 C-23.58765625 68.53125 -16.32765625 68.53125 -8.84765625 68.53125 C-8.84765625 71.17125 -8.84765625 73.81125 -8.84765625 76.53125 C9.30234375 76.53125 27.45234375 76.53125 46.15234375 76.53125 C46.15234375 71.25125 46.15234375 65.97125 46.15234375 60.53125 C44.44248291 60.54696045 42.73262207 60.5626709 40.97094727 60.57885742 C35.29129594 60.62743427 29.61167465 60.66179523 23.93187046 60.68668652 C20.49165191 60.70227416 17.05166027 60.72338408 13.61157227 60.75756836 C9.64732678 60.79671007 5.68316988 60.81101629 1.71875 60.82421875 C0.49652237 60.83970261 -0.72570526 60.85518646 -1.98497009 60.87113953 C-10.13727539 60.87273127 -17.54701415 60.28762228 -24.22265625 55.21875 C-31.19523894 48.08015344 -31.04412559 39.68926316 -31.09765625 30.28125 C-31.11828125 29.39050781 -31.13890625 28.49976562 -31.16015625 27.58203125 C-31.2037412 20.07452343 -29.997129 13.19331469 -26.16015625 6.65625 C-18.37708989 -0.49575693 -9.96448358 -0.06164049 0 0 Z " fill="#FEFEFE" transform="translate(420.84765625,33.46875)"/>
<path d="M0 0 C13.695 -0.0825 27.39 -0.165 41.5 -0.25 C45.81255859 -0.28641602 50.12511719 -0.32283203 54.56835938 -0.36035156 C59.86425781 -0.37841797 59.86425781 -0.37841797 62.34924316 -0.3817749 C64.07226705 -0.38788791 65.7952746 -0.40189528 67.51818848 -0.42230225 C70.13937773 -0.45177713 72.75952812 -0.45561772 75.38085938 -0.45410156 C76.13901695 -0.468494 76.89717453 -0.48288643 77.67830658 -0.497715 C84.28869045 -0.44686803 89.60583599 1.60583599 94.3125 6.3125 C98.0065371 12.19559612 99.38023618 16.65562161 99.3984375 23.62109375 C99.40130768 24.32468521 99.40417786 25.02827667 99.40713501 25.75318909 C99.40916326 27.23138236 99.40372072 28.70960324 99.39111328 30.18774414 C99.37506432 32.428519 99.3909901 34.66748405 99.41015625 36.90820312 C99.42255243 45.50563999 98.92195356 52.2382979 94.3125 59.75 C90.62497943 63.33785785 86.46774008 65.90549081 81.24609375 66.10546875 C80.50488281 66.07066406 79.76367188 66.03585938 79 66 C80.26922313 67.56380825 81.54052292 69.12593094 82.8125 70.6875 C83.62203125 71.6878125 84.4315625 72.688125 85.265625 73.71875 C87.12970641 75.99068475 89.05773073 78.18065015 91.046875 80.34375 C91.54856201 80.90102783 92.05024902 81.45830566 92.56713867 82.0324707 C93.5436447 83.11324366 94.53555273 84.18035095 95.54418945 85.23120117 C98.25500937 88.2685792 99.30069386 90.40333127 99.30859375 94.39453125 C99.20675781 95.58433594 99.10492187 96.77414063 99 98 C77.91878224 99.78612048 77.91878224 99.78612048 71.859375 96.078125 C69.61308407 93.18023822 67.85381245 90.16302241 66 87 C63.8267212 84.28721063 61.50904811 81.71112108 59.1875 79.125 C58.09500989 77.87992124 57.00504261 76.63262296 55.91796875 75.3828125 C55.45156982 74.85059082 54.9851709 74.31836914 54.50463867 73.77001953 C53 72 53 72 51.21118164 69.33276367 C49.17801066 66.75393233 49.17801066 66.75393233 46.06738281 66.34057617 C44.95717773 66.32486572 43.84697266 66.30915527 42.703125 66.29296875 C41.61676758 66.26485107 40.53041016 66.2367334 39.41113281 66.20776367 C38.03795898 66.20107666 36.66478516 66.19438965 35.25 66.1875 C30.8775 66.125625 26.505 66.06375 22 66 C22 76.56 22 87.12 22 98 C14.74 98 7.48 98 0 98 C0 65.66 0 33.32 0 0 Z M22 22 C22 29.26 22 36.52 22 44 C40.15 44 58.3 44 77 44 C77 36.74 77 29.48 77 22 C58.85 22 40.7 22 22 22 Z " fill="#FEFEFE" transform="translate(818,34)"/>
<path d="M0 0 C1.54121647 -0.00269907 3.08243128 -0.00658493 4.62364197 -0.01159668 C7.84211559 -0.01747057 11.060143 -0.00899651 14.27856445 0.00976562 C18.38984401 0.03257382 22.50007995 0.01940782 26.61132145 -0.00452423 C29.78995028 -0.01902342 32.96833428 -0.01435785 36.14697075 -0.00401306 C37.66232873 -0.00135812 39.17770945 -0.00457188 40.69304085 -0.01393127 C49.52784854 -0.05654135 56.01346872 -0.06669082 62.859375 6.05859375 C67.35058588 11.78766488 68.45485224 16.15308542 68.27734375 23.34375 C68.23609375 25.715625 68.19484375 28.0875 68.15234375 30.53125 C60.89234375 30.53125 53.63234375 30.53125 46.15234375 30.53125 C46.15234375 27.89125 46.15234375 25.25125 46.15234375 22.53125 C28.00234375 22.53125 9.85234375 22.53125 -8.84765625 22.53125 C-8.84765625 40.35125 -8.84765625 58.17125 -8.84765625 76.53125 C9.30234375 76.53125 27.45234375 76.53125 46.15234375 76.53125 C46.15234375 71.91125 46.15234375 67.29125 46.15234375 62.53125 C39.22234375 62.53125 32.29234375 62.53125 25.15234375 62.53125 C25.15234375 55.27125 25.15234375 48.01125 25.15234375 40.53125 C39.34234375 40.53125 53.53234375 40.53125 68.15234375 40.53125 C68.23484375 47.46125 68.31734375 54.39125 68.40234375 61.53125 C68.43875977 63.70332031 68.47517578 65.87539062 68.51269531 68.11328125 C68.52439015 69.85676081 68.53458009 71.60025139 68.54296875 73.34375 C68.57366455 74.6750293 68.57366455 74.6750293 68.60498047 76.03320312 C68.6088442 83.00337449 66.99680249 88.3075301 62.3359375 93.58984375 C61.75972656 94.04488281 61.18351563 94.49992187 60.58984375 94.96875 C60.01105469 95.44183594 59.43226563 95.91492188 58.8359375 96.40234375 C55.19056892 98.84668602 51.76863508 98.67370739 47.51293945 98.70825195 C46.84260178 98.71482315 46.1722641 98.72139435 45.48161316 98.72816467 C43.26378256 98.74786859 41.04601969 98.75955568 38.828125 98.76953125 C38.06858206 98.77360678 37.30903912 98.7776823 36.52647972 98.78188133 C32.50373991 98.80273288 28.48103409 98.81703673 24.45825195 98.82641602 C20.3167771 98.83745941 16.17584264 98.87183739 12.0345583 98.91158772 C8.83879139 98.93782213 5.64315171 98.94611401 2.44728661 98.94969749 C0.92155509 98.95454838 -0.60417132 98.96611944 -2.12979698 98.98473549 C-16.98998772 99.15474598 -16.98998772 99.15474598 -23.84765625 94.53125 C-25.90625 92.34765625 -25.90625 92.34765625 -27.28515625 90.09375 C-27.75824219 89.35253906 -28.23132813 88.61132812 -28.71875 87.84765625 C-30.83945217 83.49618086 -30.97807335 79.19772054 -31.00878906 74.41503906 C-31.01839661 73.20317932 -31.02800415 71.99131958 -31.03790283 70.74273682 C-31.04215271 69.44060242 -31.04640259 68.13846802 -31.05078125 66.796875 C-31.05360863 66.12867485 -31.056436 65.4604747 -31.05934906 64.77202606 C-31.07430415 61.23440663 -31.08355625 57.69682758 -31.08789062 54.15917969 C-31.09336341 50.52687486 -31.11737632 46.89494711 -31.14586258 43.26276016 C-31.16459829 40.45040855 -31.16970037 37.63814571 -31.1712265 34.825737 C-31.17567928 32.84229677 -31.19427201 30.85890427 -31.2131958 28.87554932 C-31.19295189 20.61589892 -30.44989187 13.86830936 -26.16015625 6.71875 C-18.47188419 -0.55393979 -9.94499107 -0.06151991 0 0 Z " fill="#FEFEFE" transform="translate(960.84765625,33.46875)"/>
<path d="M0 0 C30.36 0 60.72 0 92 0 C92 7.26 92 14.52 92 22 C68.9 22 45.8 22 22 22 C22 27.28 22 32.56 22 38 C40.48 38 58.96 38 78 38 C78 45.26 78 52.52 78 60 C59.52 60 41.04 60 22 60 C22 65.28 22 70.56 22 76 C45.1 76 68.2 76 92 76 C92 83.26 92 90.52 92 98 C61.64 98 31.28 98 0 98 C0 65.66 0 33.32 0 0 Z " fill="#FEFEFE" transform="translate(503,34)"/>
<path d="M0 0 C30.03 0 60.06 0 91 0 C91 7.26 91 14.52 91 22 C68.23 22 45.46 22 22 22 C22 27.28 22 32.56 22 38 C40.48 38 58.96 38 78 38 C78 45.26 78 52.52 78 60 C59.52 60 41.04 60 22 60 C22 65.28 22 70.56 22 76 C44.77 76 67.54 76 91 76 C91 83.26 91 90.52 91 98 C60.97 98 30.94 98 0 98 C0 65.66 0 33.32 0 0 Z " fill="#FEFEFE" transform="translate(1044,34)"/>
<path d="M0 0 C1.54121647 -0.00269907 3.08243128 -0.00658493 4.62364197 -0.01159668 C7.84211559 -0.01747057 11.060143 -0.00899651 14.27856445 0.00976562 C18.38984401 0.03257382 22.50007995 0.01940782 26.61132145 -0.00452423 C29.78995028 -0.01902342 32.96833428 -0.01435785 36.14697075 -0.00401306 C37.66232873 -0.00135812 39.17770945 -0.00457188 40.69304085 -0.01393127 C49.52784854 -0.05654135 56.01346872 -0.06669082 62.859375 6.05859375 C67.07047686 11.43035266 68.3986568 15.41238214 68.44287109 22.21411133 C68.44958832 22.86523392 68.45630554 23.51635651 68.46322632 24.18721008 C68.48214726 26.32931251 68.48612764 28.47110056 68.48828125 30.61328125 C68.494714 32.11154811 68.50144271 33.60981373 68.50845337 35.108078 C68.52041186 38.2459911 68.52413574 41.38379424 68.52294922 44.52172852 C68.52274627 48.5264332 68.55002915 52.53042634 68.58449364 56.53496265 C68.6068239 59.62952357 68.61078488 62.723915 68.60972977 65.8185482 C68.61207726 67.29402807 68.62085246 68.76951322 68.6363945 70.2449131 C68.72289214 79.30527811 68.61652484 86.47184477 62.3359375 93.58984375 C61.75972656 94.04488281 61.18351563 94.49992187 60.58984375 94.96875 C60.01105469 95.44183594 59.43226563 95.91492188 58.8359375 96.40234375 C55.19056892 98.84668602 51.76863508 98.67370739 47.51293945 98.70825195 C46.84260178 98.71482315 46.1722641 98.72139435 45.48161316 98.72816467 C43.26378256 98.74786859 41.04601969 98.75955568 38.828125 98.76953125 C38.06858206 98.77360678 37.30903912 98.7776823 36.52647972 98.78188133 C32.50373991 98.80273288 28.48103409 98.81703673 24.45825195 98.82641602 C20.3167771 98.83745941 16.17584264 98.87183739 12.0345583 98.91158772 C8.83879139 98.93782213 5.64315171 98.94611401 2.44728661 98.94969749 C0.92155509 98.95454838 -0.60417132 98.96611944 -2.12979698 98.98473549 C-16.98998772 99.15474598 -16.98998772 99.15474598 -23.84765625 94.53125 C-25.90625 92.34765625 -25.90625 92.34765625 -27.28515625 90.09375 C-27.75824219 89.35253906 -28.23132813 88.61132812 -28.71875 87.84765625 C-30.83945217 83.49618086 -30.97807335 79.19772054 -31.00878906 74.41503906 C-31.01839661 73.20317932 -31.02800415 71.99131958 -31.03790283 70.74273682 C-31.04215271 69.44060242 -31.04640259 68.13846802 -31.05078125 66.796875 C-31.05360863 66.12867485 -31.056436 65.4604747 -31.05934906 64.77202606 C-31.07430415 61.23440663 -31.08355625 57.69682758 -31.08789062 54.15917969 C-31.09336341 50.52687486 -31.11737632 46.89494711 -31.14586258 43.26276016 C-31.16459829 40.45040855 -31.16970037 37.63814571 -31.1712265 34.825737 C-31.17567928 32.84229677 -31.19427201 30.85890427 -31.2131958 28.87554932 C-31.19295189 20.61589892 -30.44989187 13.86830936 -26.16015625 6.71875 C-18.47188419 -0.55393979 -9.94499107 -0.06151991 0 0 Z M-8.84765625 22.53125 C-8.84765625 40.35125 -8.84765625 58.17125 -8.84765625 76.53125 C9.30234375 76.53125 27.45234375 76.53125 46.15234375 76.53125 C46.15234375 58.71125 46.15234375 40.89125 46.15234375 22.53125 C28.00234375 22.53125 9.85234375 22.53125 -8.84765625 22.53125 Z " fill="#FEFEFE" transform="translate(735.84765625,33.46875)"/>
<path d="M0 0 C13.695 -0.0825 27.39 -0.165 41.5 -0.25 C45.81255859 -0.28641602 50.12511719 -0.32283203 54.56835938 -0.36035156 C59.86425781 -0.37841797 59.86425781 -0.37841797 62.34924316 -0.3817749 C64.07226705 -0.38788791 65.7952746 -0.40189528 67.51818848 -0.42230225 C70.13937773 -0.45177713 72.75952812 -0.45561772 75.38085938 -0.45410156 C76.13901695 -0.468494 76.89717453 -0.48288643 77.67830658 -0.497715 C83.19310047 -0.45529529 87.37143191 0.97879592 92 4 C94.05859375 6.21875 94.05859375 6.21875 95.4375 8.5 C95.91058594 9.2528125 96.38367188 10.005625 96.87109375 10.78125 C99.92804968 16.78938484 99.22206138 23.47565083 99.24023438 30.05200195 C99.24988948 32.1633318 99.28091371 34.27366599 99.3125 36.38476562 C99.38142039 45.08739644 99.39195543 52.99923205 93.5625 59.875 C88.18209968 64.33679538 85.09719323 66.12798619 77.96801758 66.11352539 C76.72695755 66.11344986 75.48589752 66.11337433 74.20722961 66.11329651 C72.85299642 66.10818991 71.49876363 66.10297391 70.14453125 66.09765625 C68.75876415 66.09579083 67.37299639 66.09436751 65.98722839 66.09336853 C62.3425209 66.0895531 58.69785335 66.07973113 55.05316162 66.06866455 C51.33297272 66.0584295 47.61277716 66.05381162 43.89257812 66.04882812 C36.59501682 66.03863885 29.29756516 66.01906476 22 66 C22 76.56 22 87.12 22 98 C14.74 98 7.48 98 0 98 C0 65.66 0 33.32 0 0 Z M22 22 C22 29.26 22 36.52 22 44 C39.82 44 57.64 44 76 44 C76 36.74 76 29.48 76 22 C58.18 22 40.36 22 22 22 Z " fill="#FEFEFE" transform="translate(65,34)"/>
<path d="M0 0 C7.26 0 14.52 0 22 0 C22 25.08 22 50.16 22 76 C40.15 76 58.3 76 77 76 C77 50.92 77 25.84 77 0 C84.26 0 91.52 0 99 0 C99.06789038 10.55329882 99.12288219 21.10645159 99.15543652 31.65991974 C99.17106426 36.56079754 99.19224959 41.46151763 99.22631836 46.36230469 C99.25901508 51.0955713 99.27687475 55.82868662 99.28463173 60.5620575 C99.29015676 62.36409383 99.30094572 64.16612228 99.31719017 65.96809387 C99.33910179 68.5003929 99.34196124 71.03207392 99.34057617 73.56445312 C99.351362 74.30245148 99.36214783 75.04044983 99.3732605 75.80081177 C99.33838567 81.72851032 98.21332295 87.3399042 94.31640625 92.0234375 C93.73761719 92.46945313 93.15882813 92.91546875 92.5625 93.375 C91.98628906 93.83648437 91.41007812 94.29796875 90.81640625 94.7734375 C86.48102664 97.70098416 83.44843769 98.26054577 78.15527344 98.30639648 C77.47503616 98.31472 76.79479889 98.32304352 76.09394836 98.33161926 C73.84903197 98.35567809 71.60440658 98.36448736 69.359375 98.37109375 C67.79241858 98.38006521 66.22546301 98.38918715 64.6585083 98.39845276 C61.37339195 98.41493551 58.0883774 98.4226412 54.80322266 98.42553711 C50.60891974 98.43091169 46.41558415 98.46855524 42.2215538 98.51428127 C38.98372983 98.54413971 35.74613597 98.5512626 32.50818634 98.55226326 C30.96290927 98.55645036 29.41763056 98.56882373 27.87248993 98.58978081 C12.23134499 98.78498996 12.23134499 98.78498996 6 93 C0.50842043 87.36390518 -0.30060635 81.41439462 -0.22705078 73.79150391 C-0.22734283 72.99083496 -0.22763489 72.19016602 -0.22793579 71.36523438 C-0.22654955 68.73556439 -0.21102179 66.1061826 -0.1953125 63.4765625 C-0.19157986 61.64667923 -0.18873407 59.81679395 -0.18673706 57.98690796 C-0.17912039 53.18319123 -0.15948882 48.37959646 -0.1373291 43.57592773 C-0.11682827 38.66912485 -0.10772629 33.76230216 -0.09765625 28.85546875 C-0.07624102 19.23691711 -0.04107494 9.6184878 0 0 Z " fill="#FEFEFE" transform="translate(172,34)"/>
<path d="M0 0 C30.36 0 60.72 0 92 0 C92 7.26 92 14.52 92 22 C69.23 22 46.46 22 23 22 C23 27.28 23 32.56 23 38 C41.15 38 59.3 38 78 38 C78 45.26 78 52.52 78 60 C59.85 60 41.7 60 23 60 C23 72.54 23 85.08 23 98 C15.41 98 7.82 98 0 98 C0 65.66 0 33.32 0 0 Z " fill="#FEFEFE" transform="translate(607,34)"/>
<path d="M0 0 C7.26 0 14.52 0 22 0 C22 25.08 22 50.16 22 76 C47.41 76 72.82 76 99 76 C99 83.26 99 90.52 99 98 C66.33 98 33.66 98 0 98 C0 65.66 0 33.32 0 0 Z " fill="#FEFEFE" transform="translate(285,34)"/>
</svg>
