<?xml version="1.0" encoding="UTF-8"?>
<svg version="1.1" xmlns="http://www.w3.org/2000/svg" width="1200" height="1200">
<path d="M0 0 C2.68960667 2.17744923 2.68960667 2.17744923 5.47596741 4.79463196 C5.98990651 5.27580296 6.50384562 5.75697396 7.03335863 6.2527259 C13.52247315 12.36747455 19.82787266 18.67179021 26.13452148 24.97338867 C27.50728518 26.34151105 28.88024109 27.70944059 30.25337219 29.07719421 C33.94545303 32.75628974 37.63431381 36.4385963 41.32214236 40.12195373 C43.63075759 42.42762024 45.93995109 44.7327061 48.24931526 47.03762245 C55.48906696 54.26374612 62.72684879 61.49183411 69.96172947 68.72283477 C78.28946788 77.04608066 86.62373066 85.36272059 94.96365303 93.67375773 C101.43207009 100.12055206 107.89470479 106.57310576 114.35298783 113.03005201 C118.20196226 116.87798039 122.05330887 120.72345938 125.91070366 124.56294823 C129.53302008 128.16877013 133.14808904 131.78170424 136.75778008 135.40016365 C138.08019892 136.72335167 139.40516885 138.04399596 140.73291397 139.36183929 C142.55051131 141.1666767 144.35852085 142.98062545 146.16453552 144.79704285 C146.68651864 145.31096956 147.20850176 145.82489627 147.74630255 146.35439652 C154.54134766 153.24078298 158.90879711 160.66956758 159.03125 170.51171875 C158.16867124 184.59331694 148.14214047 192.89568001 138.75 202.375 C138.255 202.87483398 137.76 203.37466797 137.25 203.88964844 C130.22286675 210.88372393 124.18237895 215.0630918 114.125 215.4375 C97.20782796 214.92614971 87.02799263 201.19111958 75.8605957 190.08520508 C74.4391309 188.67493238 73.01750587 187.26482117 71.59573364 185.8548584 C66.95169222 181.24715829 62.31311654 176.63397949 57.67578125 172.01953125 C56.88473614 171.232432 56.09369102 170.44533275 55.27867484 169.63438201 C47.81079788 162.20289219 40.34540518 154.76891314 32.88505268 147.32986927 C23.36807489 137.84048587 13.83965106 128.36292066 4.29553729 118.90082818 C-2.43027509 112.23085799 -9.14257893 105.54748017 -15.84514171 98.85414809 C-19.84223444 94.86329989 -23.84499204 90.87855484 -27.862463 86.90821266 C-31.64127069 83.17319654 -35.40300629 79.4217846 -39.15259933 75.65744781 C-40.52633751 74.28403714 -41.90601955 72.91654036 -43.2922039 71.55569267 C-52.50456952 62.50282116 -59.78779797 54.42676437 -60.5625 40.875 C-59.92893195 29.25958577 -54.34273743 22.40762966 -46.44042969 14.46386719 C-45.07888741 13.08017101 -43.76051275 11.65437929 -42.4453125 10.2265625 C-30.5812686 -2.39556727 -16.17951606 -8.45718677 0 0 Z " fill="#FFFFFF" transform="translate(435,610)"/>
<path d="M0 0 C5.50495294 4.2432015 10.28826849 9.34996326 15.16015625 14.28613281 C16.6416433 15.76139978 18.12463142 17.23516064 19.60899353 18.70753479 C23.61435011 22.68963009 27.59753631 26.69322821 31.57629395 30.70187855 C35.75264215 34.90349173 39.94694427 39.08711695 44.13867188 43.27337646 C51.17128781 50.30241374 58.18974417 57.34534794 65.19970703 64.39697266 C73.29571935 72.54079401 81.41282263 80.66310975 89.54175091 88.77406621 C97.37565131 96.59147617 105.19529908 104.42299091 113.00827026 112.26131439 C116.3274895 115.59091601 119.65143472 118.91569056 122.97927856 122.23667145 C126.89793572 126.14865792 130.80388022 130.07291804 134.70047188 134.00687981 C136.12963898 135.44582725 137.56303228 136.88059178 139.00098991 138.31075478 C140.96821902 140.26875688 142.91930335 142.24158894 144.8671875 144.21881104 C145.43488389 144.77671806 146.00258028 145.33462508 146.58747959 145.90943837 C152.81059308 152.30122721 156.06580737 160.21809774 156.3125 169.125 C156.36857422 170.42824219 156.36857422 170.42824219 156.42578125 171.7578125 C155.0808929 181.99870546 149.57481119 188.35775612 142.42089844 195.30639648 C140.87897332 196.80862897 139.36861111 198.33805169 137.859375 199.87304688 C130.26148654 207.46629469 122.55759736 213.50649513 111.4375 214.0625 C96.06770621 213.66840272 86.69166687 202.12814592 76.56347656 191.95166016 C75.12262316 190.51487685 73.68113342 189.07873145 72.23905945 187.64317322 C68.34186278 183.75960239 64.45415454 179.86666306 60.5685358 175.97151232 C56.49279846 171.88815533 52.40971881 167.8121506 48.32781982 163.73495483 C41.47665094 156.88923616 34.6318143 150.03723384 27.79052734 143.18164062 C19.88957976 135.2643615 11.97787425 127.35795627 4.06050706 119.45709956 C-2.74778236 112.6624381 -9.55019053 105.86193025 -16.34774613 99.05653036 C-20.4029501 94.99665796 -24.46013328 90.93881924 -28.52263641 86.88624954 C-32.34127218 83.07630038 -36.15245502 79.25904743 -39.95808983 75.43611336 C-41.35308667 74.03716105 -42.7506218 72.6407344 -44.15091133 71.24707985 C-46.06718624 69.33904728 -47.97391278 67.42193922 -49.87860107 65.50234985 C-50.42986719 64.9577759 -50.9811333 64.41320195 -51.54910445 63.85212576 C-58.39258144 56.90498585 -63.01139074 49.42676158 -62.99609375 39.453125 C-62.21141959 28.43429633 -57.4718107 22.71051081 -50 15 C-49.44747559 14.42169434 -48.89495117 13.84338867 -48.32568359 13.24755859 C-46.51971234 11.36244316 -44.69994287 9.49174474 -42.875 7.625 C-42.30160889 7.03001709 -41.72821777 6.43503418 -41.13745117 5.82202148 C-29.31787448 -6.08542053 -14.59439179 -8.42313665 0 0 Z " fill="#FFFFFF" transform="translate(669,380)"/>
<path d="M0 0 C1.11971419 0.95416367 2.23863613 1.90925709 3.35722446 2.86474037 C4.29200165 3.66239152 4.29200165 3.66239152 5.24566323 4.47615683 C7.34154541 6.29667146 9.32340121 8.20327798 11.28295898 10.16943359 C12.04321884 10.92976898 12.8034787 11.69010437 13.58677673 12.47348022 C14.77938866 13.67383408 14.77938866 13.67383408 15.99609375 14.8984375 C16.82963882 15.73339752 17.6631839 16.56835754 18.52198792 17.42861938 C21.16286524 20.07505848 23.80022896 22.72496759 26.4375 25.375 C28.23609649 27.17861643 30.03492227 28.98200425 31.83398438 30.78515625 C36.22531248 35.18746261 40.61376729 39.59261714 45 44 C41.10990299 48.65317965 37.07291486 53.07024556 32.77371216 57.34654236 C32.17647052 57.94463842 31.57922888 58.54273449 30.963889 59.15895468 C28.98105544 61.14342288 26.9946922 63.12431822 25.00830078 65.10522461 C23.5786476 66.53459546 22.14921509 67.96418707 20.71998596 69.39398193 C16.85286551 73.26138856 12.98267596 77.12571049 9.11191797 80.98947597 C5.06222859 85.03290182 1.01538269 89.07917154 -3.0317688 93.12513733 C-10.69003842 100.78030247 -18.35085295 108.43291553 -26.01259053 116.08460957 C-34.73763716 124.79846762 -43.45983463 133.51517517 -52.18179679 142.23212039 C-70.11803477 160.15791399 -88.05783854 178.08013544 -106 196 C-107.11971419 195.04583633 -108.23863613 194.09074291 -109.35722446 193.13525963 C-109.98040926 192.6034922 -110.60359405 192.07172477 -111.24566323 191.52384317 C-113.34154541 189.70332854 -115.32340121 187.79672202 -117.28295898 185.83056641 C-118.04321884 185.07023102 -118.8034787 184.30989563 -119.58677673 183.52651978 C-120.38185135 182.72628387 -121.17692596 181.92604797 -121.99609375 181.1015625 C-122.82963882 180.26660248 -123.6631839 179.43164246 -124.52198792 178.57138062 C-127.16286524 175.92494152 -129.80022896 173.27503241 -132.4375 170.625 C-134.23609649 168.82138357 -136.03492227 167.01799575 -137.83398438 165.21484375 C-142.22531248 160.81253739 -146.61376729 156.40738286 -151 152 C-147.10990299 147.34682035 -143.07291486 142.92975444 -138.77371216 138.65345764 C-138.17647052 138.05536158 -137.57922888 137.45726551 -136.963889 136.84104532 C-134.98105544 134.85657712 -132.9946922 132.87568178 -131.00830078 130.89477539 C-129.5786476 129.46540454 -128.14921509 128.03581293 -126.71998596 126.60601807 C-122.85286551 122.73861144 -118.98267596 118.87428951 -115.11191797 115.01052403 C-111.06222859 110.96709818 -107.01538269 106.92082846 -102.9682312 102.87486267 C-95.30996158 95.21969753 -87.64914705 87.56708447 -79.98740947 79.91539043 C-71.26236284 71.20153238 -62.54016537 62.48482483 -53.81820321 53.76787961 C-35.88196523 35.84208601 -17.94216146 17.91986456 0 0 Z " fill="#FFFFFF" transform="translate(653,502)"/>
<path d="M0 0 C4.28355436 3.39291434 8.13628401 7.14956139 12 11 C13.30693076 12.28161814 14.6142385 13.56285193 15.921875 14.84375 C26.32497043 25.1035625 26.32497043 25.1035625 29.765625 29.30859375 C31.92819203 32.09767266 31.92819203 32.09767266 34.8125 34.25 C35.8953125 35.11625 35.8953125 35.11625 37 36 C37 36.66 37 37.32 37 38 C37.57878906 38.25136719 38.15757812 38.50273437 38.75390625 38.76171875 C41.28283677 40.15592914 42.9343046 41.73790358 44.9375 43.8125 C45.58589844 44.47894531 46.23429688 45.14539063 46.90234375 45.83203125 C47.94068359 46.90517578 47.94068359 46.90517578 49 48 C49.79277344 48.78375 50.58554687 49.5675 51.40234375 50.375 C54.74127265 53.74907552 57.90557776 57.26592947 61.0703125 60.80273438 C63.27825816 63.24067437 65.24648589 65.16432393 68 67 C68 67.66 68 68.32 68 69 C68.66 69 69.32 69 70 69 C70 69.66 70 70.32 70 71 C70.639375 71.268125 71.27875 71.53625 71.9375 71.8125 C74 73 74 73 75 76 C76.3153341 76.70151152 77.65117592 77.36525925 79 78 C80.75 79.5 80.75 79.5 82 81 C82 81.66 82 82.32 82 83 C82.66 83 83.32 83 84 83 C84 83.66 84 84.32 84 85 C85.32 85.66 86.64 86.32 88 87 C88 87.66 88 88.32 88 89 C88.598125 89.268125 89.19625 89.53625 89.8125 89.8125 C91.99847854 90.99917406 93.41332594 92.09599113 95 94 C95 94.66 95 95.32 95 96 C95.99 96.33 96.98 96.66 98 97 C98 97.66 98 98.32 98 99 C98.99 99.33 99.98 99.66 101 100 C101 100.66 101 101.32 101 102 C101.5878125 102.25652344 102.175625 102.51304687 102.78125 102.77734375 C108.62695717 105.99865773 112.90787894 112.34689302 115.33984375 118.453125 C117.33894901 126.16564942 116.82520171 134.29727065 113.5546875 141.56640625 C110.46821268 146.39774748 106.24458074 150.19283788 102 154 C98.36744308 152.46515459 96.0440821 150.29550263 93.26702881 147.52099609 C92.80625324 147.06334051 92.34547768 146.60568493 91.87073922 146.134161 C90.33058733 144.60197586 88.79767053 143.06275385 87.26464844 141.5234375 C86.16103843 140.42253787 85.05700347 139.32206409 83.95257568 138.22198486 C80.95647546 135.23500326 77.96673711 132.24172874 74.9783659 129.24701691 C71.85300936 126.11660023 68.72278002 122.99106228 65.59332275 119.86474609 C60.34083688 114.61589874 55.09258239 109.36284813 49.84667969 104.10742188 C43.77464302 98.02448957 37.69541946 91.9488112 31.61243415 85.87682915 C26.39427885 80.66773647 21.18001452 75.45477305 15.96900964 70.2385273 C12.85463571 67.12102947 9.73891233 64.00491267 6.61968231 60.89227295 C3.68985762 57.96820658 0.76493248 55.03932756 -2.15621185 52.10659027 C-3.23165478 51.02849311 -4.30882128 49.95211225 -5.38778687 48.87754059 C-6.8548358 47.41591826 -8.31564532 45.94833889 -9.77496338 44.47900391 C-10.59569462 43.65751862 -11.41642586 42.83603333 -12.26202774 41.98965454 C-14 40 -14 40 -14 38 C-14.55719727 37.76732422 -15.11439453 37.53464844 -15.68847656 37.29492188 C-18.59923645 35.66430607 -20.62181133 33.63760806 -22.984375 31.28125 C-24.38623047 29.88326172 -24.38623047 29.88326172 -25.81640625 28.45703125 C-26.2973877 27.97186035 -26.77836914 27.48668945 -27.27392578 26.98681641 C-28.75204848 25.49793661 -30.24059911 24.02008349 -31.73046875 22.54296875 C-32.65988281 21.61097656 -33.58929687 20.67898438 -34.546875 19.71875 C-35.40120117 18.86216797 -36.25552734 18.00558594 -37.13574219 17.12304688 C-39 15 -39 15 -39 13 C-39.99 12.67 -40.98 12.34 -42 12 C-41.29047123 7.10970941 -38.20869087 4.96901941 -34.5859375 1.90625 C-24.33202757 -5.65252348 -10.99820251 -6.75772812 0 0 Z " fill="#FFFFFF" transform="translate(726,362)"/>
<path d="M0 0 C4.21165289 2.10582644 6.69283919 4.76262223 9.5703125 8.37890625 C11.09773544 10.25086359 11.09773544 10.25086359 14 12 C14 12.66 14 13.32 14 14 C14.66 14 15.32 14 16 14 C16 14.66 16 15.32 16 16 C16.99 16.33 17.98 16.66 19 17 C19 17.66 19 18.32 19 19 C19.66 19 20.32 19 21 19 C21 19.66 21 20.32 21 21 C21.66 21 22.32 21 23 21 C24.71108689 22.62102968 26.37253306 24.29503463 28 26 C28.763125 26.721875 29.52625 27.44375 30.3125 28.1875 C32 30 32 30 32 32 C32.66 32 33.32 32 34 32 C34 32.66 34 33.32 34 34 C34.99 34.33 35.98 34.66 37 35 C37 35.66 37 36.32 37 37 C37.66 37 38.32 37 39 37 C40.625 38.375 40.625 38.375 42 40 C42 40.66 42 41.32 42 42 C42.66 42 43.32 42 44 42 C44 42.66 44 43.32 44 44 C44.639375 44.268125 45.27875 44.53625 45.9375 44.8125 C48 46 48 46 49 49 C49.66 49 50.32 49 51 49 C51 49.66 51 50.32 51 51 C51.66 51 52.32 51 53 51 C53 51.66 53 52.32 53 53 C54.485 53.495 54.485 53.495 56 54 C56 54.66 56 55.32 56 56 C57.485 56.495 57.485 56.495 59 57 C59 57.66 59 58.32 59 59 C59.55429687 59.21527344 60.10859375 59.43054688 60.6796875 59.65234375 C63.80423859 61.46710827 65.75278757 63.84684786 68.125 66.5625 C71.16488178 70.28587934 71.16488178 70.28587934 75 73 C75 73.66 75 74.32 75 75 C76.98 75.99 76.98 75.99 79 77 C79 77.66 79 78.32 79 79 C79.639375 79.268125 80.27875 79.53625 80.9375 79.8125 C83 81 83 81 84 84 C84.66 84 85.32 84 86 84 C86 84.66 86 85.32 86 86 C87.485 86.495 87.485 86.495 89 87 C90.61328125 88.671875 90.61328125 88.671875 92.3125 90.75 C94.4723721 93.30630432 96.56649491 95.60533099 99.1875 97.6875 C102 100 102 100 103.9375 102.4375 C105.67119055 104.59147917 107.20377635 106.07866056 109.3125 107.8125 C111.80385416 109.882654 113.94408909 112.00349266 116.0234375 114.484375 C120.38797058 119.53758723 125.08924632 124.23990085 129.81762695 128.94799805 C131.33078666 130.45572096 132.83842885 131.96881759 134.34570312 133.48242188 C135.30957474 134.44563392 136.27375584 135.4085364 137.23828125 136.37109375 C138.10493408 137.23661865 138.97158691 138.10214355 139.86450195 138.99389648 C141.83484761 141.0367774 141.83484761 141.0367774 144 142 C143.17148141 147.39720682 139.12746656 149.84197399 135 153 C129.4102274 156.74896395 124.6902828 158.16693709 118 158.4375 C116.96875 158.49808594 115.9375 158.55867187 114.875 158.62109375 C103.56405357 156.80814971 95.62526857 149.49283739 87.87890625 141.59179688 C86.83072281 140.54519942 85.78122893 139.49991303 84.73054504 138.45582581 C81.90948688 135.64493878 79.10727267 132.81595243 76.30858612 129.98281288 C73.36460092 127.008518 70.40417316 124.05067057 67.44580078 121.09069824 C62.4867895 116.1243297 57.5391391 111.14687924 52.59912109 106.16162109 C46.26709866 99.77172759 39.91654896 93.40058473 33.5599823 87.0351181 C28.07750816 81.54467381 22.60356741 76.04574421 17.13099289 70.54543495 C15.37885141 68.78511938 13.62555522 67.02596019 11.87210083 65.26695251 C9.11575369 62.50078354 6.36479572 59.72935899 3.61786461 56.95384026 C2.61177933 55.93875099 1.60403778 54.9253001 0.59449196 53.91365242 C-0.78750302 52.52813492 -2.16270486 51.13585162 -3.53759766 49.74328613 C-4.30737946 48.96755501 -5.07716125 48.19182388 -5.87026978 47.39258575 C-12.69421361 39.72641724 -14.55459161 32.78951415 -14.46875 22.703125 C-13.71689777 16.76349235 -11.10495609 12.04555365 -8 7 C-7.34 7 -6.68 7 -6 7 C-5.7525 6.401875 -5.505 5.80375 -5.25 5.1875 C-3.83629988 2.71352479 -2.34944617 1.56629745 0 0 Z " fill="#FFFFFF" transform="translate(372,684)"/>
<path d="M0 0 C0.89203125 -0.03996094 1.7840625 -0.07992188 2.703125 -0.12109375 C11.6296948 1.51544405 17.94414335 9.14447403 24.0625 15.3125 C25.40151367 16.62154297 25.40151367 16.62154297 26.76757812 17.95703125 C32.36238084 23.55604375 37.17168683 28.50983392 37.1875 36.875 C37.00220831 42.57028128 34.76491508 47.42258492 30.75 51.4375 C27.31471729 51.11713573 25.6261685 49.68148748 23.25415039 47.28222656 C22.25775291 46.2854892 22.25775291 46.2854892 21.2412262 45.26861572 C20.53384811 44.54575378 19.82647003 43.82289185 19.09765625 43.078125 C18.36050888 42.33673279 17.62336151 41.59534058 16.86387634 40.83148193 C14.50628704 38.45710026 12.15931473 36.07252707 9.8125 33.6875 C8.23571867 32.09566779 6.65825235 30.50451378 5.08007812 28.9140625 C1.54099428 25.34514959 -1.99255642 21.77091898 -5.51583862 18.18640137 C-7.04448262 16.64476423 -8.59605743 15.13137824 -10.15454102 13.62011719 C-12.36216884 11.32066562 -13.30118863 9.45644528 -14.25 6.4375 C-9.51739541 2.49366284 -6.25397596 0.15188227 0 0 Z " fill="#FFFFFF" transform="translate(786.25,376.5625)"/>
<path d="M0 0 C0.99 0 1.98 0 3 0 C3 0.66 3 1.32 3 2 C3.59941406 2.26167969 4.19882812 2.52335938 4.81640625 2.79296875 C7.13061764 4.07220188 8.29659445 5.26250442 9.9375 7.3125 C12.47375571 10.39041836 15.14046519 13.21378659 18 16 C19.66805845 17.66527372 21.33455657 19.33211099 23 21 C23.825 21.825 24.65 22.65 25.5 23.5 C32 30 38.5 36.5 45 43 C43.26130049 47.13810484 41.33953985 48.41354257 37.34375 50.23046875 C32.64751886 51.77239797 27.85012632 52.32638793 23.26879883 50.19433594 C16.86345883 46.51568612 11.85482846 41.33427725 6.6875 36.125 C5.79482422 35.25230469 4.90214844 34.37960937 3.98242188 33.48046875 C-1.86438289 27.62926458 -6.3846 22.73192517 -6.5 14.0625 C-6.35332058 8.41965626 -3.9771387 3.9771387 0 0 Z " fill="#FFFFFF" transform="translate(383,772)"/>
</svg>
